<?xml version="1.0" standalone="no"?>
<!DOCTYPE svg PUBLIC "-//W3C//DTD SVG 20010904//EN"
 "http://www.w3.org/TR/2001/REC-SVG-20010904/DTD/svg10.dtd">
<svg version="1.0" xmlns="http://www.w3.org/2000/svg"
 width="190.000000pt" height="86.000000pt" viewBox="0 0 190.000000 86.000000"
 preserveAspectRatio="xMidYMid meet">

<g transform="translate(0.000000,86.000000) scale(0.100000,-0.100000)"
fill="#000000" stroke="none">
<path d="M0 690 l0 -170 85 0 85 0 0 -90 0 -90 175 0 175 0 0 260 0 260 -260
0 -260 0 0 -170z m340 -85 l0 -85 -85 0 -85 0 0 85 0 85 85 0 85 0 0 -85z"/>
<path d="M690 690 l0 -170 85 0 85 0 0 -90 0 -90 175 0 175 0 0 260 0 260
-260 0 -260 0 0 -170z m340 -85 l0 -85 -85 0 -85 0 0 85 0 85 85 0 85 0 0 -85z"/>
<path d="M1380 600 l0 -260 170 0 170 0 0 -85 0 -85 90 0 90 0 0 175 0 175
-175 0 -175 0 0 85 0 85 175 0 175 0 0 85 0 85 -260 0 -260 0 0 -260z"/>
</g>
</svg>
